<svg xmlns="http://www.w3.org/2000/svg" width="256" height="256"><path fill-opacity=".016" d="M0 128.004v128.004l128.25-.254 128.25-.254.254-127.75L257.008 0H0v128.004m.485.496c0 70.4.119 99.053.265 63.672.146-35.38.146-92.98 0-128C.604 29.153.485 58.1.485 128.5" fill="#1976D2" fill-rule="evenodd"/><path fill-opacity=".167" d="M219 31.213c-14.025 2.082-44.85 6.722-68.5 10.312-42.301 6.421-123.834 18.643-136.431 20.452-5.152.74-7.041 1.534-9.5 3.992L1.5 69.037l-.275 55.529c-.247 49.959-.108 55.878 1.381 59.016.91 1.918 2.609 4.001 3.774 4.63 1.969 1.062 31.146 6.153 144.62 25.237 24.475 4.116 54.822 9.299 67.438 11.517 12.616 2.219 24.593 4.034 26.615 4.034 4.72 0 8.585-3.025 9.971-7.804.738-2.544.979-32.264.774-95.381l-.298-91.684-2.841-2.965c-1.563-1.631-4.038-3.139-5.5-3.352-1.463-.212-14.134 1.318-28.159 3.399m1 21.975a34300.22 34300.22 0 00-52 7.872c-21.725 3.301-62.225 9.362-90 13.467-27.775 4.106-51.512 7.701-52.75 7.988l-2.25.523v42.922c0 23.607.374 43.153.832 43.436.457.283 20.82 3.892 45.25 8.019C203.233 200.083 232.49 205 233.208 205c1.008 0 1.05-152.744.042-153.282-.412-.22-6.375.441-13.25 1.47M77.357 76.992C72.303 79.031 72 80.689 72 106.321c0 26.344-.572 29.372-6.085 32.223C57.286 143.006 47 137.308 47 128.065c0-1.905-1.035-4.192-2.784-6.149-3.994-4.47-9.489-4.413-13.558.141-2.713 3.036-2.869 3.651-2.302 9.072 1.12 10.723 7.384 20.039 16.853 25.067 6.222 3.304 21.221 3.324 27.891.037 6.262-3.085 11.656-8.642 14.787-15.233 2.571-5.411 2.618-5.911 2.94-30.857.356-27.674-.017-30.156-4.918-32.69-3.136-1.622-5.377-1.743-8.552-.461m22.098 22.463L97 101.909V175.822l3.077 2.589c3.404 2.865 5.534 3.179 9.451 1.394 4.055-1.847 5.472-5.696 5.472-14.862 0-7.398.163-8.085 1.75-7.379.963.428 5.436.971 9.941 1.207 7.149.375 8.882.113 13.62-2.056 7.322-3.352 13.081-8.772 16.291-15.334 2.187-4.471 2.661-6.824 2.661-13.218 0-9.19-2.059-14.714-7.9-21.192-5.758-6.385-14.059-9.969-23.093-9.97-4.338-.001-8.851.648-11.285 1.622-3.742 1.497-4.195 1.497-5.849 0-2.772-2.509-8.768-2.082-11.681.832M184 98.933c-6.608 2.674-12.434 8.246-15.924 15.23-5.573 11.152-3.88 25.233 4.126 34.329 5.594 6.355 12.534 9.705 21.3 10.28 3.851.252 8.688-.007 10.75-.576 4.45-1.229 5.079.243 1.498 3.505-5.934 5.404-13.422 5.844-22.359 1.312-8.411-4.266-12.318-3.989-14.928 1.059-2.905 5.617-1.321 10.254 5.071 14.845 9.293 6.674 25.348 7.822 36.065 2.579 6.87-3.362 13.552-10.807 15.718-17.516 1.416-4.382 1.683-9.729 1.683-33.64v-28.431l-2.455-2.454c-2.846-2.847-8.318-3.305-11.847-.993-1.94 1.271-2.753 1.277-6.215.044-5.651-2.012-16.987-1.797-22.483.427m-61.97 17.346c-3.362 1.702-7.03 7.389-7.03 10.901 0 13.579 17.087 18.925 24.04 7.521 6.647-10.901-5.619-24.186-17.01-18.422m68.47-.325c-4.011 1.659-6.772 5.794-7.186 10.763-.478 5.739.997 8.902 5.598 12.003 8.45 5.694 20.081-.515 20.081-10.72 0-9.073-9.974-15.57-18.493-12.046" fill="#1976D2" fill-rule="evenodd"/><path fill-opacity=".282" d="M77.18 77.566c-1.584.667-3.281 2.049-3.769 3.073-.489 1.023-1.119 13.413-1.4 27.533-.505 25.384-.538 25.7-2.908 28.221-3.496 3.718-8.459 5.117-13.158 3.709-4.726-1.416-8.945-6.241-8.945-10.228 0-6.18-4.101-10.874-9.5-10.874-13.413 0-11.179 22.711 3.316 33.708 14.967 11.354 37.727 6.243 46.217-10.378 2.421-4.74 2.472-5.344 2.761-32.39.281-26.394.208-27.668-1.732-30.133-2.378-3.024-6.836-3.942-10.882-2.241m22.743 22.357L97 102.846v71.862l2.452 2.646c3.287 3.546 8.654 3.631 12.093.191 2.248-2.247 2.455-3.224 2.455-11.587v-9.134l4.25.838c17.033 3.358 30.337-2.325 37.531-16.034 2.308-4.398 2.691-6.337 2.691-13.628 0-7.283-.384-9.232-2.681-13.608-7.351-14.007-22.435-20.36-37.628-15.848-4.687 1.392-5.416 1.392-7.404 0-3.478-2.437-7.537-1.92-10.836 1.379m86.37-1.474c-9.244 2.889-18.081 12.33-20.334 21.723-4.624 19.274 8.358 37.22 27.898 38.569 4.384.303 8.088-.046 10.893-1.024 4.802-1.676 4.992-1.446 2.364 2.863-4.362 7.154-14.108 8.125-24.83 2.473-6.976-3.677-8.358-3.753-11.956-.659-3.941 3.39-3.914 9.341.062 13.491 5.292 5.524 11.765 7.608 23.61 7.603 12.189-.004 16.841-1.703 24.069-8.789 8.134-7.972 8.389-9.216 8.737-42.47l.305-29.272-2.978-2.978c-3.356-3.356-7.391-3.887-10.892-1.435-1.988 1.392-2.717 1.392-7.404 0-6.237-1.852-13.805-1.889-19.544-.095m-61.379 16.507c-4.796 1.453-7.802 4.183-9.498 8.625-1.585 4.151-1.585 4.689.016 8.879 2.871 7.519 10.91 10.857 18.239 7.576 7.174-3.212 9.713-10.118 6.441-17.516-1.597-3.61-2.935-4.992-6.319-6.528-4.705-2.135-5.101-2.181-8.879-1.036m66.586.574c-12.358 4.309-11.572 21.871 1.136 25.38 8.33 2.3 16.364-3.949 16.364-12.728 0-9.717-8.433-15.813-17.5-12.652" fill="#1976D2" fill-rule="evenodd"/><path fill-opacity=".234" d="M75.455 79.455L73 81.909v23.73c0 21.601-.178 24.096-1.979 27.817-2.375 4.907-6.461 7.545-11.675 7.54C52.12 140.989 46 134.697 46 127.273c0-6.838-9.272-10.161-14.578-5.223-2.438 2.269-2.598 2.929-2.177 8.95.582 8.302 3.176 13.356 10.108 19.692 6.304 5.761 11.999 7.818 21.185 7.654 8.535-.152 15.334-3.332 21.46-10.034 7.483-8.188 8.002-10.85 8.002-41.039V81.909l-2.455-2.454C85.851 77.76 83.979 77 81.5 77s-4.351.76-6.045 2.455m27.045 18.7c-4.501 2.461-4.5 2.455-4.5 40.314 0 39.279.04 39.571 5.63 40.974 3.556.893 7.842-.99 9.24-4.058.622-1.363 1.13-6.331 1.13-11.039 0-7.745.167-8.495 1.75-7.88 8.527 3.312 20.076 2.468 27.895-2.038 13.274-7.651 18.414-25.986 11.284-40.254-3.316-6.636-7.331-10.522-14.647-14.176-6.077-3.035-17.023-3.32-23.054-.601-4.055 1.829-4.13 1.826-6.799-.274-2.998-2.358-4.951-2.597-7.929-.968m86.569-.108c-5.357 1.101-13.952 6.622-17.451 11.209-4.312 5.653-5.868 10.634-5.875 18.802-.007 8.888 2.099 14.547 7.734 20.785 5.79 6.408 12.956 9.426 22.302 9.392 4.247-.016 8.959-.514 10.471-1.107 3.935-1.543 3.662.906-.622 5.581-3.106 3.39-3.888 3.713-9.909 4.096-5.791.369-7.234.062-12.657-2.694-3.367-1.711-7.155-3.111-8.418-3.111-3.406 0-6.644 3.98-6.644 8.168 0 6.616 7.682 11.989 19.84 13.875 16.49 2.559 29.935-4.082 36.533-18.043 2.019-4.271 2.127-5.994 2.127-33.837v-29.337l-2.376-1.926c-3.835-3.107-6.92-3.427-10.134-1.05-2.601 1.922-3.14 1.986-6.17.726-4.569-1.9-13.429-2.623-18.751-1.529m-67.049 17.705c-10.097 5.072-10.522 18.313-.779 24.253 5.793 3.533 12.413 2.231 17.759-3.491 2.076-2.221 2.5-3.666 2.5-8.514 0-4.839-.428-6.303-2.5-8.548-2.801-3.036-7.776-5.453-11.218-5.45-1.255 0-3.848.788-5.762 1.75m68-.054c-10.103 5.232-10.524 18.366-.779 24.307 11.938 7.279 26.051-7.753 18.335-19.529-3.753-5.728-11.599-7.864-17.556-4.778" fill="#1976D2" fill-rule="evenodd"/></svg>